<?xml version="1.0" encoding="UTF-8" standalone="no"?>
<!-- Generator: Adobe Illustrator 22.0.1, SVG Export Plug-In . SVG Version: 6.00 Build 0)  -->

<svg
   version="1.1"
   id="_x35_0"
   x="0px"
   y="0px"
   viewBox="0 0 512 512"
   style="enable-background:new 0 0 512 512;"
   xml:space="preserve"
   sodipodi:docname="icon-first.svg"
   inkscape:version="1.1.1 (3bf5ae0d25, 2021-09-20)"
   xmlns:inkscape="http://www.inkscape.org/namespaces/inkscape"
   xmlns:sodipodi="http://sodipodi.sourceforge.net/DTD/sodipodi-0.dtd"
   xmlns="http://www.w3.org/2000/svg"
   xmlns:svg="http://www.w3.org/2000/svg"><defs
   id="defs69">
	
	
	

		
		
	
			
			
		
				
				
				
			
					
					
				
					
					
				
					
					
				
						
					
		
		
		
	</defs><sodipodi:namedview
   id="namedview67"
   pagecolor="#505050"
   bordercolor="#eeeeee"
   borderopacity="1"
   inkscape:pageshadow="0"
   inkscape:pageopacity="0"
   inkscape:pagecheckerboard="0"
   showgrid="false"
   inkscape:zoom="1.4042969"
   inkscape:cx="256.7121"
   inkscape:cy="256"
   inkscape:window-width="1920"
   inkscape:window-height="991"
   inkscape:window-x="-9"
   inkscape:window-y="-9"
   inkscape:window-maximized="1"
   inkscape:current-layer="_x35_0" />
<circle
   style="fill:#e6ac00;fill-opacity:1"
   cx="256"
   cy="256"
   r="256"
   id="circle2" /><g
   id="g20">
			<g
   id="g10">
				<path
   style="fill:#c0405c"
   d="M 163.486,249.223 H 308.279 L 242.403,108.19 C 233.786,89.742 215.266,77.951 194.904,77.951 H 116.86 c -15.548,0 -25.83,16.152 -19.25,30.239 z"
   id="path4" />
				<path
   style="fill:#e9465e"
   d="M 196.86,249.223 H 163.485 L 97.61,108.19 c -6.58,-14.087 3.703,-30.239 19.25,-30.239 v 0 z"
   id="path6" />
				<path
   style="fill:#e9465e"
   d="m 308.279,249.223 h -33.375 l -80,-171.272 v 0 c 20.362,0 38.882,11.79 47.499,30.239 z"
   id="path8" />
			</g>
			<g
   id="g18">
				<path
   style="fill:#e9465e"
   d="M 348.517,249.223 H 203.724 L 269.6,108.19 c 8.617,-18.448 27.137,-30.239 47.499,-30.239 h 78.044 c 15.548,0 25.83,16.152 19.25,30.239 z"
   id="path12" />
				<path
   style="fill:#ee6781"
   d="m 315.143,249.223 h 33.375 L 414.394,108.19 c 6.58,-14.087 -3.703,-30.239 -19.25,-30.239 v 0 z"
   id="path14" />
				<path
   style="fill:#ee6781"
   d="m 203.724,249.223 h 33.375 l 80,-171.272 v 0 c -20.362,0 -38.882,11.79 -47.499,30.239 z"
   id="path16" />
			</g>
		</g><circle
   style="fill:#de8f00;fill-opacity:1"
   cx="256"
   cy="332.121"
   r="124.228"
   id="circle22" /><path
   style="fill:#ffa90e;fill-opacity:1"
   d="m 256,456.349 c 68.609,0 124.228,-55.619 124.228,-124.228 0,-68.609 -55.619,-124.227 -124.228,-124.227 z"
   id="path24" /><path
   style="fill:#e39d20;fill-opacity:1"
   d="m 256,437.823 c -58.284,0 -105.702,-47.417 -105.702,-105.702 0,-58.285 47.418,-105.702 105.702,-105.702 58.284,0 105.702,47.418 105.702,105.702 0,58.284 -47.418,105.702 -105.702,105.702 z m 0,-204.404 c -54.424,0 -98.702,44.278 -98.702,98.702 0,54.424 44.278,98.702 98.702,98.702 54.424,0 98.702,-44.277 98.702,-98.702 0,-54.425 -44.278,-98.702 -98.702,-98.702 z"
   id="path28" /><g
   id="g34"
   style="fill:#ffbb43;fill-opacity:1">
						<path
   style="fill:#ffbb43;fill-opacity:1"
   d="m 256,437.823 v -7 c 54.424,0 98.702,-44.277 98.702,-98.702 0,-54.425 -44.278,-98.702 -98.702,-98.702 v -7 c 58.284,0 105.702,47.418 105.702,105.702 0,58.284 -47.418,105.702 -105.702,105.702 z"
   id="path32" />
					</g><circle
   style="fill:#e39d20;fill-opacity:1"
   cx="256"
   cy="332.121"
   id="circle38"
   r="82.898003" /><path
   style="fill:#ffbb43;fill-opacity:1"
   d="m 256,415.019 c 45.783,0 82.898,-37.115 82.898,-82.898 0,-45.783 -37.115,-82.898 -82.898,-82.898 z"
   id="path40" /><g
   id="g50"
   style="fill:#ffffff;fill-opacity:1">
				<path
   style="fill:#ffffff;fill-opacity:1"
   d="m 288.17,372.08 h -17.85 v -92.14 c 0,-3.4 -0.96,-6.06 -2.89,-7.99 -4.517,-4.519 -12.113,-3.146 -17.34,0.17 0,0 -26.35,16.32 -26.35,16.32 -2.95,1.82 -4.42,4.37 -4.42,7.65 -0.12,4.571 3.632,10.01 8.5,9.86 1.25,0 2.66,-0.45 4.25,-1.36 l 16.32,-10.03 v 77.52 h -17.68 c -6.91,0 -10.37,2.89 -10.37,8.67 0,6.01 3.46,9.01 10.37,9.01 h 57.46 c 6.8,0 10.2,-3 10.2,-9.01 0,-5.78 -3.4,-8.67 -10.2,-8.67 z"
   id="path46" />
				<path
   style="fill:#ffffff;fill-opacity:1"
   d="m 298.37,380.75 c 0,6.01 -3.4,9.01 -10.2,9.01 H 256 v -120.2 c 7.471,-2.085 14.59,2.121 14.32,10.38 0,0 0,92.14 0,92.14 h 17.85 c 6.8,0 10.2,2.89 10.2,8.67 z"
   id="path48" />
			</g><path
   style="fill:#ffffff"
   d="m 407.484,279.945 h -10.57 c -7.352,0 -13.312,-5.96 -13.312,-13.312 v -10.57 c 0,-3.193 -2.588,-5.781 -5.781,-5.781 v 0 c -3.193,0 -5.781,2.588 -5.781,5.781 v 10.57 c 0,7.352 -5.96,13.312 -13.312,13.312 h -10.57 c -3.193,0 -5.781,2.588 -5.781,5.781 v 0 c 0,3.193 2.588,5.781 5.781,5.781 h 10.57 c 7.352,0 13.312,5.96 13.312,13.312 v 10.57 c 0,3.193 2.588,5.781 5.781,5.781 v 0 c 3.193,0 5.781,-2.588 5.781,-5.781 v -10.57 c 0,-7.352 5.96,-13.312 13.312,-13.312 h 10.57 c 3.193,0 5.781,-2.588 5.781,-5.781 v 0 c 0,-3.193 -2.588,-5.781 -5.781,-5.781 z"
   id="path56" /><path
   style="fill:#ffe8a1;fill-opacity:1"
   d="m 442.58,335.489 h -8.125 c -5.652,0 -10.233,-4.582 -10.233,-10.233 v -8.125 c 0,-2.454 -1.99,-4.444 -4.444,-4.444 v 0 c -2.454,0 -4.444,1.99 -4.444,4.444 v 8.125 c 0,5.652 -4.582,10.233 -10.233,10.233 h -8.125 c -2.454,0 -4.444,1.99 -4.444,4.444 v 0 c 0,2.454 1.99,4.444 4.444,4.444 h 8.125 c 5.652,0 10.233,4.582 10.233,10.233 v 8.125 c 0,2.454 1.99,4.444 4.444,4.444 v 0 c 2.454,0 4.444,-1.99 4.444,-4.444 v -8.125 c 0,-5.652 4.582,-10.233 10.233,-10.233 h 8.125 c 2.454,0 4.444,-1.99 4.444,-4.444 v 0 c 0,-2.454 -1.99,-4.444 -4.444,-4.444 z"
   id="path58" /><path
   style="fill:#ffe8a1;fill-opacity:1"
   d="m 108.033,220.638 h -10.57 c -7.352,0 -13.312,-5.96 -13.312,-13.312 v -10.57 c 0,-3.193 -2.588,-5.781 -5.781,-5.781 v 0 c -3.193,0 -5.781,2.588 -5.781,5.781 v 10.57 c 0,7.352 -5.96,13.312 -13.312,13.312 h -10.57 c -3.193,0 -5.781,2.588 -5.781,5.781 v 0 c 0,3.193 2.588,5.781 5.781,5.781 h 10.57 c 7.352,0 13.312,5.96 13.312,13.312 v 10.57 c 0,3.193 2.588,5.781 5.781,5.781 v 0 c 3.193,0 5.781,-2.588 5.781,-5.781 v -10.57 c 0,-7.352 5.96,-13.312 13.312,-13.312 h 10.57 c 3.193,0 5.781,-2.588 5.781,-5.781 v 0 c 0,-3.192 -2.589,-5.781 -5.781,-5.781 z"
   id="path60" />
</svg>
