<?xml version="1.0" encoding="UTF-8" standalone="no"?>
<!-- Generator: Adobe Illustrator 22.0.1, SVG Export Plug-In . SVG Version: 6.00 Build 0)  -->

<svg
   version="1.1"
   id="_x35_0"
   x="0px"
   y="0px"
   viewBox="0 0 512 512"
   style="enable-background:new 0 0 512 512;"
   xml:space="preserve"
   sodipodi:docname="icon-second.svg"
   inkscape:version="1.1.1 (3bf5ae0d25, 2021-09-20)"
   xmlns:inkscape="http://www.inkscape.org/namespaces/inkscape"
   xmlns:sodipodi="http://sodipodi.sourceforge.net/DTD/sodipodi-0.dtd"
   xmlns="http://www.w3.org/2000/svg"
   xmlns:svg="http://www.w3.org/2000/svg"><defs
   id="defs73">
	
	
	

		
		
		
	
		
		
	
			
			
		
			
			
		
				
				
				
			
					
					
				
					
					
				
					
					
				</defs><sodipodi:namedview
   id="namedview71"
   pagecolor="#505050"
   bordercolor="#eeeeee"
   borderopacity="1"
   inkscape:pageshadow="0"
   inkscape:pageopacity="0"
   inkscape:pagecheckerboard="0"
   showgrid="false"
   inkscape:zoom="0.71386719"
   inkscape:cx="244.44323"
   inkscape:cy="286.46785"
   inkscape:window-width="1920"
   inkscape:window-height="991"
   inkscape:window-x="-9"
   inkscape:window-y="-9"
   inkscape:window-maximized="1"
   inkscape:current-layer="_x35_0" />
<circle
   style="fill:#737373;fill-opacity:1"
   cx="256"
   cy="256"
   r="256"
   id="circle2" /><g
   id="g10">
				<path
   style="fill:#50755c"
   d="M 163.486,249.223 H 308.279 L 242.403,108.19 C 233.786,89.742 215.266,77.951 194.904,77.951 H 116.86 c -15.548,0 -25.83,16.152 -19.25,30.239 z"
   id="path4" />
				<path
   style="fill:#528f66"
   d="M 196.86,249.223 H 163.485 L 97.61,108.19 c -6.58,-14.087 3.703,-30.239 19.25,-30.239 v 0 z"
   id="path6" />
				<path
   style="fill:#528f66"
   d="m 308.279,249.223 h -33.375 l -80,-171.272 v 0 c 20.362,0 38.882,11.79 47.499,30.239 z"
   id="path8" />
			</g><g
   id="g18">
				<path
   style="fill:#528f66"
   d="M 348.517,249.223 H 203.724 L 269.6,108.19 c 8.617,-18.448 27.137,-30.239 47.499,-30.239 h 78.044 c 15.548,0 25.83,16.152 19.25,30.239 z"
   id="path12" />
				<path
   style="fill:#53b976"
   d="m 315.143,249.223 h 33.375 L 414.394,108.19 c 6.58,-14.087 -3.703,-30.239 -19.25,-30.239 v 0 z"
   id="path14" />
				<path
   style="fill:#53b976"
   d="m 203.724,249.223 h 33.375 l 80,-171.272 v 0 c -20.362,0 -38.882,11.79 -47.499,30.239 z"
   id="path16" />
			</g><circle
   style="fill:#c3c3c3;fill-opacity:1"
   cx="256"
   cy="332.121"
   r="124.228"
   id="circle22" /><path
   style="fill:#d1d1d1;fill-opacity:1"
   d="m 256,456.349 c 68.609,0 124.228,-55.619 124.228,-124.228 0,-68.609 -55.619,-124.227 -124.228,-124.227 z"
   id="path24" /><g
   id="g30"
   style="fill:#d4d4d4;fill-opacity:1">
						<path
   style="fill:#d4d4d4;fill-opacity:1"
   d="m 256,437.823 c -58.284,0 -105.702,-47.417 -105.702,-105.702 0,-58.285 47.418,-105.702 105.702,-105.702 58.284,0 105.702,47.418 105.702,105.702 0,58.284 -47.418,105.702 -105.702,105.702 z m 0,-204.404 c -54.424,0 -98.702,44.278 -98.702,98.702 0,54.424 44.278,98.702 98.702,98.702 54.424,0 98.702,-44.277 98.702,-98.702 0,-54.425 -44.278,-98.702 -98.702,-98.702 z"
   id="path28" />
					</g><g
   id="g34"
   style="fill:#eaeaea;fill-opacity:1">
						<path
   style="fill:#eaeaea;fill-opacity:1"
   d="m 256,437.823 v -7 c 54.424,0 98.702,-44.277 98.702,-98.702 0,-54.425 -44.278,-98.702 -98.702,-98.702 v -7 c 58.284,0 105.702,47.418 105.702,105.702 0,58.284 -47.418,105.702 -105.702,105.702 z"
   id="path32" />
					</g><circle
   style="fill:#d4d4d4;fill-opacity:1"
   cx="256"
   cy="332.121"
   r="82.898003"
   id="circle38" /><path
   style="fill:#eaeaea;fill-opacity:1"
   d="m 256,415.019 c 45.783,0 82.898,-37.115 82.898,-82.898 0,-45.783 -37.115,-82.898 -82.898,-82.898 z"
   id="path40" /><g
   id="g54"
   style="fill:#575757;fill-opacity:1">
				<path
   style="fill:#575757;fill-opacity:1"
   d="m 287.58,372.08 h -44.89 c 7.215,-7.659 22.135,-23.559 29.41,-31.28 7.03,-7.48 12.02,-14.25 14.96,-20.31 12.083,-26.338 -0.668,-50.947 -31.06,-52.04 -7.759,-0.379 -15.324,0.764 -23,3.42 -6.68,2.32 -12.52,5.47 -17.5,9.43 -2.688,2.279 -3.9,4.481 -3.92,7.99 -0.155,5.799 4.845,11.29 10.54,8.42 1.14,-0.51 2.27,-1.16 3.4,-1.96 4.42,-3.06 8.82,-5.46 13.18,-7.22 8.163,-3.231 19.804,-4.461 26.61,1.61 3.06,2.84 4.59,6.92 4.59,12.24 -0.267,10.863 -5.839,18.393 -13.78,27.37 -0.069,0.203 -38.659,41.46 -38.75,41.65 -4.263,4.272 -5.553,11.323 -1.37,15.73 1.71,1.76 4.03,2.63 6.98,2.63 h 64.6 c 6.8,0 10.19,-3 10.19,-9.01 0,-5.78 -3.39,-8.67 -10.19,-8.67 z"
   id="path46" />
				<g
   id="g52"
   style="fill:#575757;fill-opacity:1">
					<path
   style="fill:#575757;fill-opacity:1"
   d="m 291.48,301.02 c 0.57,23.674 -20.207,39.912 -35.48,56.9 v -28.04 c 4.781,-5.197 8.367,-10.112 10.58,-14.49 6.134,-11.72 4.466,-27.599 -10.58,-29.27 v -17.67 c 19.796,0.661 35.659,12.306 35.48,32.57 z"
   id="path48" />
					<path
   style="fill:#575757;fill-opacity:1"
   d="m 297.77,380.75 c 0,6.01 -3.39,9.01 -10.19,9.01 H 256 v -17.68 h 31.58 c 6.8,0 10.19,2.89 10.19,8.67 z"
   id="path50" />
				</g>
			</g><path
   style="fill:#ffffff"
   d="m 407.484,279.945 h -10.57 c -7.352,0 -13.312,-5.96 -13.312,-13.312 v -10.57 c 0,-3.193 -2.588,-5.781 -5.781,-5.781 v 0 c -3.193,0 -5.781,2.588 -5.781,5.781 v 10.57 c 0,7.352 -5.96,13.312 -13.312,13.312 h -10.57 c -3.193,0 -5.781,2.588 -5.781,5.781 v 0 c 0,3.193 2.588,5.781 5.781,5.781 h 10.57 c 7.352,0 13.312,5.96 13.312,13.312 v 10.57 c 0,3.193 2.588,5.781 5.781,5.781 v 0 c 3.193,0 5.781,-2.588 5.781,-5.781 v -10.57 c 0,-7.352 5.96,-13.312 13.312,-13.312 h 10.57 c 3.193,0 5.781,-2.588 5.781,-5.781 v 0 c 0,-3.193 -2.588,-5.781 -5.781,-5.781 z"
   id="path60" /><path
   style="fill:#b2b2b2;fill-opacity:1"
   d="m 442.58,335.489 h -8.125 c -5.652,0 -10.233,-4.582 -10.233,-10.233 v -8.125 c 0,-2.454 -1.99,-4.444 -4.444,-4.444 v 0 c -2.454,0 -4.444,1.99 -4.444,4.444 v 8.125 c 0,5.652 -4.582,10.233 -10.233,10.233 h -8.125 c -2.454,0 -4.444,1.99 -4.444,4.444 v 0 c 0,2.454 1.99,4.444 4.444,4.444 h 8.125 c 5.652,0 10.233,4.582 10.233,10.233 v 8.125 c 0,2.454 1.99,4.444 4.444,4.444 v 0 c 2.454,0 4.444,-1.99 4.444,-4.444 v -8.125 c 0,-5.652 4.582,-10.233 10.233,-10.233 h 8.125 c 2.454,0 4.444,-1.99 4.444,-4.444 v 0 c 0,-2.454 -1.99,-4.444 -4.444,-4.444 z"
   id="path62" /><path
   style="fill:#b2b2b2;fill-opacity:1"
   d="m 108.033,220.638 h -10.57 c -7.352,0 -13.312,-5.96 -13.312,-13.312 v -10.57 c 0,-3.193 -2.588,-5.781 -5.781,-5.781 v 0 c -3.193,0 -5.781,2.588 -5.781,5.781 v 10.57 c 0,7.352 -5.96,13.312 -13.312,13.312 h -10.57 c -3.193,0 -5.781,2.588 -5.781,5.781 v 0 c 0,3.193 2.588,5.781 5.781,5.781 h 10.57 c 7.352,0 13.312,5.96 13.312,13.312 v 10.57 c 0,3.193 2.588,5.781 5.781,5.781 v 0 c 3.193,0 5.781,-2.588 5.781,-5.781 v -10.57 c 0,-7.352 5.96,-13.312 13.312,-13.312 h 10.57 c 3.193,0 5.781,-2.588 5.781,-5.781 v 0 c 0,-3.192 -2.589,-5.781 -5.781,-5.781 z"
   id="path64" />
</svg>
