<?xml version="1.0" encoding="UTF-8" standalone="no"?>
<!-- Generator: Adobe Illustrator 22.0.1, SVG Export Plug-In . SVG Version: 6.00 Build 0)  -->

<svg
   version="1.1"
   id="_x35_0"
   x="0px"
   y="0px"
   viewBox="0 0 512 512"
   style="enable-background:new 0 0 512 512;"
   xml:space="preserve"
   sodipodi:docname="icon-third.svg"
   inkscape:version="1.1.1 (3bf5ae0d25, 2021-09-20)"
   xmlns:inkscape="http://www.inkscape.org/namespaces/inkscape"
   xmlns:sodipodi="http://sodipodi.sourceforge.net/DTD/sodipodi-0.dtd"
   xmlns="http://www.w3.org/2000/svg"
   xmlns:svg="http://www.w3.org/2000/svg"><defs
   id="defs69">
	
	
	

		
		
		
	
		
		
	
			
			
		
				
				
				
			
					
					
				
					
					
				
					
					
				</defs><sodipodi:namedview
   id="namedview67"
   pagecolor="#505050"
   bordercolor="#eeeeee"
   borderopacity="1"
   inkscape:pageshadow="0"
   inkscape:pageopacity="0"
   inkscape:pagecheckerboard="0"
   showgrid="false"
   inkscape:zoom="1.4042969"
   inkscape:cx="256"
   inkscape:cy="256"
   inkscape:window-width="1920"
   inkscape:window-height="991"
   inkscape:window-x="-9"
   inkscape:window-y="-9"
   inkscape:window-maximized="1"
   inkscape:current-layer="_x35_0" />
<circle
   style="fill:#ac7339;fill-opacity:1"
   cx="256"
   cy="256"
   r="256"
   id="circle2" /><g
   id="g20">
			<g
   id="g10">
				<path
   style="fill:#57409b"
   d="M 163.486,249.223 H 308.279 L 242.403,108.19 C 233.786,89.742 215.266,77.951 194.904,77.951 H 116.86 c -15.548,0 -25.83,16.152 -19.25,30.239 z"
   id="path4" />
				<path
   style="fill:#6052a3"
   d="M 196.86,249.223 H 163.485 L 97.61,108.19 c -6.58,-14.087 3.703,-30.239 19.25,-30.239 v 0 z"
   id="path6" />
				<path
   style="fill:#6052a3"
   d="m 308.279,249.223 h -33.375 l -80,-171.272 v 0 c 20.362,0 38.882,11.79 47.499,30.239 z"
   id="path8" />
			</g>
			<g
   id="g18">
				<path
   style="fill:#6052a3"
   d="M 348.517,249.223 H 203.724 L 269.6,108.19 c 8.617,-18.448 27.137,-30.239 47.499,-30.239 h 78.044 c 15.548,0 25.83,16.152 19.25,30.239 z"
   id="path12" />
				<path
   style="fill:#7063ce"
   d="m 315.143,249.223 h 33.375 L 414.394,108.19 c 6.58,-14.087 -3.703,-30.239 -19.25,-30.239 v 0 z"
   id="path14" />
				<path
   style="fill:#7063ce"
   d="m 203.724,249.223 h 33.375 l 80,-171.272 v 0 c -20.362,0 -38.882,11.79 -47.499,30.239 z"
   id="path16" />
			</g>
		</g><circle
   style="fill:#d16b02;fill-opacity:1"
   cx="256"
   cy="332.121"
   r="124.228"
   id="circle22" /><path
   style="fill:#ed7800;fill-opacity:1"
   d="m 256,456.349 c 68.609,0 124.228,-55.619 124.228,-124.228 0,-68.609 -55.619,-124.227 -124.228,-124.227 z"
   id="path24" /><g
   id="g30"
   style="fill:#fc942c;fill-opacity:1">
						<path
   style="fill:#fc942c;fill-opacity:1"
   d="m 256,437.823 c -58.284,0 -105.702,-47.417 -105.702,-105.702 0,-58.285 47.418,-105.702 105.702,-105.702 58.284,0 105.702,47.418 105.702,105.702 0,58.284 -47.418,105.702 -105.702,105.702 z m 0,-204.404 c -54.424,0 -98.702,44.278 -98.702,98.702 0,54.424 44.278,98.702 98.702,98.702 54.424,0 98.702,-44.277 98.702,-98.702 0,-54.425 -44.278,-98.702 -98.702,-98.702 z"
   id="path28" />
					</g><g
   id="g34"
   style="fill:#ffa244;fill-opacity:1">
						<path
   style="fill:#ffa244;fill-opacity:1"
   d="m 256,437.823 v -7 c 54.424,0 98.702,-44.277 98.702,-98.702 0,-54.425 -44.278,-98.702 -98.702,-98.702 v -7 c 58.284,0 105.702,47.418 105.702,105.702 0,58.284 -47.418,105.702 -105.702,105.702 z"
   id="path32" />
					</g><circle
   style="fill:#fc942c;fill-opacity:1"
   cx="256"
   cy="332.121"
   id="circle38"
   r="82.898003" /><path
   style="fill:#ffa244;fill-opacity:1"
   d="m 256,415.019 c 45.783,0 82.898,-37.115 82.898,-82.898 0,-45.783 -37.115,-82.898 -82.898,-82.898 z"
   id="path40" /><g
   id="g50"
   style="fill:#ffffff;fill-opacity:1">
				<path
   style="fill:#ffffff;fill-opacity:1"
   d="m 288.77,338.51 c -3.8,-5.04 -9.27,-8.47 -16.41,-10.29 21.299,-7.265 25.912,-37.414 8.76,-51.17 -11.829,-10.154 -33.279,-10.712 -48.45,-5.18 -6.63,2.32 -12.33,5.47 -17.09,9.43 -2.623,2.483 -3.893,4.393 -3.91,7.99 -0.13,4.244 2.826,9.029 7.14,9.01 2.878,-0.046 3.951,-1.045 6.8,-2.55 10.945,-7.439 19.972,-10.756 30.39,-9.61 9.084,1.187 14.764,7.16 14.66,16.75 -0.063,17.226 -16.242,17.883 -30.09,17.51 -10.855,-0.319 -10.797,17.579 0,17.34 0,0 9.69,0 9.69,0 6.035,-0.109 13.712,1.168 17.6,4.34 7.676,5.15 7.445,21.717 0.25,27.03 -2.85,2.36 -6.89,3.79 -12.11,4.29 -12.241,1.306 -21.996,-2.748 -32.26,-9.65 -2.851,-1.488 -3.928,-2.495 -6.8,-2.55 -4.307,-0.012 -7.264,4.77 -7.14,9.01 0,3.06 1.3,5.73 3.91,7.99 10.057,8.656 24.947,12.974 38.59,12.92 21.777,0.453 42.453,-10.9 42.16,-33.83 0,-7.48 -1.9,-13.74 -5.69,-18.78 z"
   id="path46" />
				<path
   style="fill:#ffffff;fill-opacity:1"
   d="m 294.46,357.29 c 0.091,21.464 -17.488,32.951 -38.46,33.73 V 373.4 c 11.096,-1.034 17.553,-6.413 17.55,-17.98 0,-11.359 -6.762,-16.237 -17.55,-17.39 v -18.38 c 9.78,-1.91 14.66,-7.49 14.66,-16.76 0.104,-9.589 -5.576,-15.564 -14.66,-16.75 v -17.69 c 19.549,0.617 35.689,11.79 35.57,31.72 -0.147,12.866 -7.11,23.587 -19.21,28.05 14.355,3.58 22.156,14.331 22.1,29.07 z"
   id="path48" />
			</g><path
   style="fill:#ffffff"
   d="m 407.484,279.945 h -10.57 c -7.352,0 -13.312,-5.96 -13.312,-13.312 v -10.57 c 0,-3.193 -2.588,-5.781 -5.781,-5.781 v 0 c -3.193,0 -5.781,2.588 -5.781,5.781 v 10.57 c 0,7.352 -5.96,13.312 -13.312,13.312 h -10.57 c -3.193,0 -5.781,2.588 -5.781,5.781 v 0 c 0,3.193 2.588,5.781 5.781,5.781 h 10.57 c 7.352,0 13.312,5.96 13.312,13.312 v 10.57 c 0,3.193 2.588,5.781 5.781,5.781 v 0 c 3.193,0 5.781,-2.588 5.781,-5.781 v -10.57 c 0,-7.352 5.96,-13.312 13.312,-13.312 h 10.57 c 3.193,0 5.781,-2.588 5.781,-5.781 v 0 c 0,-3.193 -2.588,-5.781 -5.781,-5.781 z"
   id="path56" /><path
   style="fill:#f1cda9;fill-opacity:1"
   d="m 442.58,335.489 h -8.125 c -5.652,0 -10.233,-4.582 -10.233,-10.233 v -8.125 c 0,-2.454 -1.99,-4.444 -4.444,-4.444 v 0 c -2.454,0 -4.444,1.99 -4.444,4.444 v 8.125 c 0,5.652 -4.582,10.233 -10.233,10.233 h -8.125 c -2.454,0 -4.444,1.99 -4.444,4.444 v 0 c 0,2.454 1.99,4.444 4.444,4.444 h 8.125 c 5.652,0 10.233,4.582 10.233,10.233 v 8.125 c 0,2.454 1.99,4.444 4.444,4.444 v 0 c 2.454,0 4.444,-1.99 4.444,-4.444 v -8.125 c 0,-5.652 4.582,-10.233 10.233,-10.233 h 8.125 c 2.454,0 4.444,-1.99 4.444,-4.444 v 0 c 0,-2.454 -1.99,-4.444 -4.444,-4.444 z"
   id="path58" /><path
   style="fill:#f1cda9;fill-opacity:1"
   d="m 108.033,220.638 h -10.57 c -7.352,0 -13.312,-5.96 -13.312,-13.312 v -10.57 c 0,-3.193 -2.588,-5.781 -5.781,-5.781 v 0 c -3.193,0 -5.781,2.588 -5.781,5.781 v 10.57 c 0,7.352 -5.96,13.312 -13.312,13.312 h -10.57 c -3.193,0 -5.781,2.588 -5.781,5.781 v 0 c 0,3.193 2.588,5.781 5.781,5.781 h 10.57 c 7.352,0 13.312,5.96 13.312,13.312 v 10.57 c 0,3.193 2.588,5.781 5.781,5.781 v 0 c 3.193,0 5.781,-2.588 5.781,-5.781 v -10.57 c 0,-7.352 5.96,-13.312 13.312,-13.312 h 10.57 c 3.193,0 5.781,-2.588 5.781,-5.781 v 0 c 0,-3.192 -2.589,-5.781 -5.781,-5.781 z"
   id="path60" />
</svg>
