<?xml version="1.0" encoding="UTF-8" standalone="no"?>
<!-- Generator: Adobe Illustrator 16.0.0, SVG Export Plug-In . SVG Version: 6.00 Build 0)  -->

<svg
   version="1.1"
   id="Layer_1"
   x="0px"
   y="0px"
   width="142.226"
   height="106.23267"
   viewBox="0 0 142.226 106.23267"
   enable-background="new 0 0 216 216"
   xml:space="preserve"
   sodipodi:docname="LSTME_logo_white.svg"
   inkscape:version="1.1.1 (3bf5ae0d25, 2021-09-20)"
   xmlns:inkscape="http://www.inkscape.org/namespaces/inkscape"
   xmlns:sodipodi="http://sodipodi.sourceforge.net/DTD/sodipodi-0.dtd"
   xmlns="http://www.w3.org/2000/svg"
   xmlns:svg="http://www.w3.org/2000/svg"><defs
   id="defs35"><inkscape:path-effect
     effect="powerclip"
     id="path-effect1488"
     is_visible="true"
     lpeversion="1"
     inverse="true"
     flatten="false"
     hide_clip="false"
     message="Use fill-rule evenodd on &lt;b&gt;fill and stroke&lt;/b&gt; dialog if no flatten result after convert clip to paths." /><inkscape:path-effect
     effect="powerclip"
     id="path-effect872"
     is_visible="true"
     lpeversion="1"
     inverse="true"
     flatten="false"
     hide_clip="false"
     message="Use fill-rule evenodd on &lt;b&gt;fill and stroke&lt;/b&gt; dialog if no flatten result after convert clip to paths." /><inkscape:path-effect
     effect="powerclip"
     id="path-effect864"
     is_visible="true"
     lpeversion="1"
     inverse="true"
     flatten="false"
     hide_clip="false"
     message="Use fill-rule evenodd on &lt;b&gt;fill and stroke&lt;/b&gt; dialog if no flatten result after convert clip to paths." /><clipPath
     clipPathUnits="userSpaceOnUse"
     id="clipPath860"><path
       fill="#ffffff"
       d="m 87.049,98.064 c 0.169,0.17 0.392,0.255 0.613,0.255 0.223,0 0.443,-0.085 0.613,-0.255 l 5.143,-5.143 c 0.163,-0.162 0.253,-0.383 0.253,-0.613 0,-0.229 -0.09,-0.451 -0.253,-0.613 l -5.212,-5.212 c -0.339,-0.338 -0.888,-0.338 -1.227,0 -0.338,0.34 -0.338,0.889 0,1.227 l 4.6,4.599 -4.53,4.53 c -0.339,0.339 -0.339,0.889 0,1.225 m -8.945,3.197 c 0.35,0 0.68,-0.214 0.812,-0.562 l 6.162,-16.234 c 0.17,-0.448 -0.056,-0.949 -0.502,-1.119 -0.448,-0.17 -0.95,0.056 -1.12,0.503 l -6.162,16.235 c -0.17,0.448 0.055,0.948 0.503,1.119 0.1,0.039 0.204,0.058 0.307,0.058 z M 75.386,86.483 c -0.339,-0.338 -0.889,-0.338 -1.228,0 l -5.212,5.212 c -0.162,0.162 -0.254,0.384 -0.254,0.613 0,0.23 0.092,0.45 0.254,0.613 l 5.144,5.144 c 0.169,0.169 0.391,0.254 0.613,0.254 0.222,0 0.443,-0.085 0.613,-0.254 0.339,-0.338 0.339,-0.888 0,-1.227 l -4.53,-4.53 4.6,-4.599 c 0.338,-0.337 0.338,-0.886 0,-1.226 z"
       id="path862"
       style="display:none" /><path
       id="lpe_path-effect864"
       class="powerclip"
       d="m 37.957,66.081 h 68.918 v 52.002 H 37.957 Z m 49.092,31.983 c 0.169,0.17 0.392,0.255 0.613,0.255 0.223,0 0.443,-0.085 0.613,-0.255 l 5.143,-5.143 c 0.163,-0.162 0.253,-0.383 0.253,-0.613 0,-0.229 -0.09,-0.451 -0.253,-0.613 l -5.212,-5.212 c -0.339,-0.338 -0.888,-0.338 -1.227,0 -0.338,0.34 -0.338,0.889 0,1.227 l 4.6,4.599 -4.53,4.53 c -0.339,0.339 -0.339,0.889 0,1.225 m -8.945,3.197 c 0.35,0 0.68,-0.214 0.812,-0.562 l 6.162,-16.234 c 0.17,-0.448 -0.056,-0.949 -0.502,-1.119 -0.448,-0.17 -0.95,0.056 -1.12,0.503 l -6.162,16.235 c -0.17,0.448 0.055,0.948 0.503,1.119 0.1,0.039 0.204,0.058 0.307,0.058 z M 75.386,86.483 c -0.339,-0.338 -0.889,-0.338 -1.228,0 l -5.212,5.212 c -0.162,0.162 -0.254,0.384 -0.254,0.613 0,0.23 0.092,0.45 0.254,0.613 l 5.144,5.144 c 0.169,0.169 0.391,0.254 0.613,0.254 0.222,0 0.443,-0.085 0.613,-0.254 0.339,-0.338 0.339,-0.888 0,-1.227 l -4.53,-4.53 4.6,-4.599 c 0.338,-0.337 0.338,-0.886 0,-1.226 z" /></clipPath><clipPath
     clipPathUnits="userSpaceOnUse"
     id="clipPath868"><path
       fill="#ffffff"
       d="m 131.908,70.644 v 8.561 c -0.66,-0.104 -1.332,-0.157 -2.02,-0.157 -3.557,0 -6.779,1.442 -9.111,3.774 -2.129,2.129 -3.516,4.999 -3.74,8.189 h -7.924 c -0.479,0 -0.865,0.388 -0.865,0.867 0,0.478 0.387,0.865 0.865,0.865 h 7.916 c 0.199,3.236 1.596,6.148 3.748,8.301 2.332,2.332 5.555,3.773 9.111,3.773 0.688,0 1.359,-0.054 2.02,-0.156 v 8.843 l 1.732,-1.732 v -7.508 c 2.049,-0.623 3.885,-1.742 5.359,-3.22 2.332,-2.332 3.775,-5.554 3.775,-9.111 0,-3.557 -1.443,-6.779 -3.775,-9.111 -1.475,-1.477 -3.311,-2.597 -5.359,-3.22 v -7.229 c -0.577,-0.576 -1.155,-1.152 -1.732,-1.729 z m -9.906,13.402 c 2.018,-2.018 4.807,-3.266 7.887,-3.266 0.689,0 1.365,0.062 2.02,0.182 v 1.359 l -6.328,6.328 v -2.943 c 0,-0.479 -0.391,-0.866 -0.867,-0.866 -0.479,0 -0.867,0.388 -0.867,0.866 v 5.305 h -5.072 c 0.221,-2.712 1.413,-5.15 3.227,-6.965 z m 9.906,18.857 c -0.654,0.119 -1.33,0.182 -2.02,0.182 -3.08,0 -5.869,-1.247 -7.887,-3.266 -1.84,-1.839 -3.039,-4.318 -3.236,-7.076 h 5.08 v 5.306 c 0,0.479 0.389,0.867 0.867,0.867 0.477,0 0.867,-0.388 0.867,-0.867 v -2.78 l 2.172,2.174 -0.934,0.935 c -0.217,0.217 -0.297,0.535 -0.207,0.828 0.088,0.294 0.332,0.515 0.631,0.574 l 3.561,0.713 1.105,1.105 v 1.305 z m 5.867,-18.857 c 2.018,2.017 3.266,4.807 3.266,7.887 0,3.08 -1.248,5.869 -3.266,7.887 -1.156,1.156 -2.564,2.06 -4.135,2.62 v -1.2 l -0.002,-0.021 v -0.002 -0.02 -0.003 -0.018 l -0.002,-0.004 v -0.016 -0.006 l -0.004,-0.016 v -0.007 l -0.002,-0.014 -0.002,-0.008 -0.002,-0.013 v -0.009 l -0.004,-0.012 -0.002,-0.009 -0.002,-0.012 -0.002,-0.01 -0.002,-0.011 -0.004,-0.011 -0.002,-0.01 -0.002,-0.011 -0.004,-0.009 -0.004,-0.012 -0.002,-0.009 -0.004,-0.012 -0.004,-0.008 -0.004,-0.011 -0.002,-0.009 -0.004,-0.012 -0.004,-0.008 -0.004,-0.012 -0.004,-0.009 -0.006,-0.011 -0.004,-0.009 -0.004,-0.011 -0.004,-0.007 -0.006,-0.011 -0.01,-0.02 -0.004,-0.008 -0.008,-0.011 -0.004,-0.009 -0.006,-0.009 -0.004,-0.009 -0.008,-0.009 -0.004,-0.009 -0.006,-0.009 -0.006,-0.01 -0.006,-0.007 -0.008,-0.011 -0.006,-0.007 -0.008,-0.011 -0.004,-0.006 -0.01,-0.012 -0.002,-0.004 -0.012,-0.013 -0.004,-0.004 -0.012,-0.013 -0.002,-0.002 -0.012,-0.014 -0.002,-10e-4 -0.014,-0.016 -1.295,-1.294 -0.732,-3.669 c -0.061,-0.301 -0.283,-0.544 -0.576,-0.633 -0.293,-0.089 -0.611,-0.01 -0.828,0.208 l -0.979,0.979 -3.396,-3.398 v -0.908 -0.033 -0.033 -0.746 l 7.807,-7.808 0.014,-0.015 0.002,-0.001 0.012,-0.014 0.002,-0.003 0.012,-0.013 0.004,-0.003 0.012,-0.013 0.002,-0.005 0.01,-0.012 0.004,-0.005 0.008,-0.011 0.006,-0.007 0.008,-0.011 0.006,-0.008 0.006,-0.009 0.006,-0.009 0.004,-0.009 0.008,-0.009 0.004,-0.01 0.006,-0.009 0.004,-0.008 0.008,-0.011 0.004,-0.008 0.01,-0.02 0.006,-0.011 0.004,-0.008 0.004,-0.011 0.004,-0.008 0.006,-0.011 0.004,-0.009 0.004,-0.012 0.004,-0.008 0.004,-0.012 0.002,-0.009 0.004,-0.011 0.004,-0.009 0.004,-0.012 0.002,-0.009 0.004,-0.011 0.004,-0.009 0.002,-0.011 0.002,-0.01 0.004,-0.011 0.002,-0.011 0.002,-0.01 0.002,-0.012 0.002,-0.009 0.004,-0.012 V 82.8 l 0.002,-0.013 0.002,-0.008 0.002,-0.014 v -0.007 l 0.004,-0.016 V 82.736 82.72 l 0.002,-0.005 v -0.018 -0.003 -0.019 -0.003 l 0.002,-0.021 v -1.253 c 1.57,0.588 2.978,1.492 4.134,2.648 z"
       id="path870"
       style="display:none" /><path
       id="lpe_path-effect872"
       class="powerclip"
       d="m 96.864,61.344 h 78 v 61.468 h -78 z m 35.044,9.3 v 8.561 c -0.66,-0.104 -1.332,-0.157 -2.02,-0.157 -3.557,0 -6.779,1.442 -9.111,3.774 -2.129,2.129 -3.516,4.999 -3.74,8.189 h -7.924 c -0.479,0 -0.865,0.388 -0.865,0.867 0,0.478 0.387,0.865 0.865,0.865 h 7.916 c 0.199,3.236 1.596,6.148 3.748,8.301 2.332,2.332 5.555,3.773 9.111,3.773 0.688,0 1.359,-0.054 2.02,-0.156 v 8.843 l 1.732,-1.732 v -7.508 c 2.049,-0.623 3.885,-1.742 5.359,-3.22 2.332,-2.332 3.775,-5.554 3.775,-9.111 0,-3.557 -1.443,-6.779 -3.775,-9.111 -1.475,-1.477 -3.311,-2.597 -5.359,-3.22 v -7.229 c -0.577,-0.576 -1.155,-1.152 -1.732,-1.729 z m -9.906,13.402 c -1.814,1.815 -3.006,4.253 -3.227,6.965 h 5.072 v -5.305 c 0,-0.478 0.388,-0.866 0.867,-0.866 0.476,0 0.867,0.387 0.867,0.866 v 2.943 l 6.328,-6.328 v -1.359 c -0.655,-0.12 -1.331,-0.182 -2.02,-0.182 -3.08,0 -5.869,1.248 -7.887,3.266 z m 9.906,18.857 h -10e-4 v -1.305 l -1.105,-1.105 -3.561,-0.713 c -0.299,-0.059 -0.543,-0.28 -0.631,-0.574 -0.09,-0.293 -0.01,-0.611 0.207,-0.828 l 0.934,-0.935 -2.172,-2.174 v 2.78 c 0,0.479 -0.39,0.867 -0.867,0.867 -0.478,0 -0.867,-0.388 -0.867,-0.867 v -5.306 h -5.08 c 0.197,2.758 1.396,5.237 3.236,7.076 2.018,2.019 4.807,3.266 7.887,3.266 0.69,0 1.366,-0.063 2.02,-0.182 z m 5.867,-18.857 c -1.156,-1.156 -2.564,-2.06 -4.134,-2.648 v 1.253 l -0.002,0.021 v 0.003 0.019 0.003 0.018 l -0.002,0.005 v 0.016 0.006 l -0.004,0.016 v 0.007 l -0.002,0.014 -0.002,0.008 -0.002,0.013 v 0.009 l -0.004,0.012 -0.002,0.009 -0.002,0.012 -0.002,0.01 -0.002,0.011 -0.004,0.011 -0.002,0.01 -0.002,0.011 -0.004,0.009 -0.004,0.011 -0.002,0.009 -0.004,0.012 -0.004,0.009 -0.004,0.011 -0.002,0.009 -0.004,0.012 -0.004,0.008 -0.004,0.012 -0.004,0.009 -0.006,0.011 -0.004,0.008 -0.004,0.011 -0.004,0.008 -0.006,0.011 -0.01,0.02 -0.004,0.008 -0.008,0.011 -0.004,0.008 -0.006,0.009 -0.004,0.01 -0.008,0.009 -0.004,0.009 -0.006,0.009 -0.006,0.009 -0.006,0.008 -0.008,0.011 -0.006,0.007 -0.008,0.011 -0.004,0.005 -0.01,0.012 -0.002,0.005 -0.012,0.013 -0.004,0.003 -0.012,0.013 -0.002,0.003 -0.012,0.014 -0.002,0.001 -0.014,0.015 -7.807,7.808 v 0.746 0.033 0.033 0.908 l 3.396,3.398 0.979,-0.979 c 0.217,-0.218 0.535,-0.297 0.828,-0.208 0.293,0.089 0.515,0.332 0.576,0.633 l 0.732,3.669 1.295,1.294 0.014,0.016 0.002,10e-4 0.012,0.014 0.002,0.002 0.012,0.013 0.004,0.004 0.012,0.013 0.002,0.004 0.01,0.012 0.004,0.006 0.008,0.011 0.006,0.007 0.008,0.011 0.006,0.007 0.006,0.01 0.006,0.009 0.004,0.009 0.008,0.009 0.004,0.009 0.006,0.009 0.004,0.009 0.008,0.011 0.004,0.008 0.01,0.02 0.006,0.011 0.004,0.007 0.004,0.011 0.004,0.009 0.006,0.011 0.004,0.009 0.004,0.012 0.004,0.008 0.004,0.012 0.002,0.009 0.004,0.011 0.004,0.008 0.004,0.012 0.002,0.009 0.004,0.012 0.004,0.009 0.002,0.011 0.002,0.01 0.004,0.011 0.002,0.011 0.002,0.01 0.002,0.012 0.002,0.009 0.004,0.012 v 0.009 l 0.002,0.013 0.002,0.008 0.002,0.014 v 0.007 l 0.004,0.016 v 0.006 0.016 l 0.002,0.004 v 0.018 0.003 0.02 0.002 l 0.002,0.021 v 1.2 c 1.571,-0.56 2.979,-1.464 4.135,-2.62 2.018,-2.018 3.266,-4.807 3.266,-7.887 0,-3.08 -1.248,-5.87 -3.266,-7.887 z" /></clipPath><clipPath
     clipPathUnits="userSpaceOnUse"
     id="clipPath1484"><path
       id="path1486"
       d="m 94.161133,72.389742 c 0.716305,0.69075 1.529145,1.267598 2.429269,1.710863 0.939013,0.462353 1.93554,0.76717 2.965034,0.907096 4.118684,0.557582 8.118484,-1.573081 9.953764,-5.303676 1.13891,-2.311471 1.30753,-4.931034 0.47867,-7.370345 -0.4123,-1.21117 -1.05039,-2.291672 -1.8756,-3.234129 l -2.32972,0.0015 c 0.26728,0.203616 0.53234,0.410745 0.77064,0.649009 0.87116,0.871041 1.51876,1.91317 1.92116,3.094645 0.31329,0.924109 0.45659,1.884341 0.42555,2.855849 l -0.0455,1.371322 -0.55524,-1.253897 c -0.64424,-1.448727 -1.45682,-2.666267 -2.41284,-3.62215 -0.49851,-0.498444 -1.00358,-0.894322 -1.49431,-1.209637 -0.38254,-0.246738 -0.78947,-0.478247 -1.19317,-0.07448 -0.28634,0.286381 -0.28557,0.747371 -0.001,1.031591 0.0509,0.05091 0.10357,0.08752 0.16296,0.124283 0.44476,0.262289 0.91777,0.607304 1.38659,1.060498 0.0368,0.03535 0.071,0.071 0.10496,0.104949 1.37604,1.375842 2.40046,3.365044 3.04549,5.909013 l 0.0318,0.122899 -0.0636,0.107686 c -0.47508,0.849924 -1.09145,1.597035 -1.83241,2.222132 l -0.47638,0.401924 -0.0401,-0.62282 c -0.0984,-1.55624 -0.5134,-4.418474 -2.19067,-6.095511 -0.47518,-0.475113 -1.02831,-0.830117 -1.64206,-1.056334 l -0.15053,-0.0566 -0.0442,-0.160196 c -0.3996,-1.530765 -0.39544,-3.317093 0.0273,-4.908016 l -1.51493,-0.0013 c -0.327984,1.371726 -0.465504,3.174293 0.0791,5.26292 l 0.0497,0.193331 -0.15326,0.125702 c -0.422799,0.353562 -1.165342,0.846697 -2.290962,1.19748 -0.973605,0.304813 -2.339169,0.418117 -3.525625,0.38002 l 1.03e-4,1.469364 c 3.697247,0.171555 5.867384,-1.177136 6.853674,-2.026389 l 0.15188,-0.129841 0.18368,0.08423 c 0.34647,0.155529 0.66519,0.380641 0.95016,0.665568 0.93056,0.93043 1.1997,1.941876 1.54556,3.431634 0.20159,1.089571 0.24317,2.150373 0.24464,2.848952 l 1e-5,0.209911 -0.19472,0.08148 c -1.30733,0.533925 -2.73345,0.714428 -4.124963,0.526447 -0.858383,-0.115898 -1.693446,-0.371312 -2.474778,-0.756606 -0.232632,-0.113821 -0.470821,-0.247824 -0.711233,-0.39629 l -0.926682,-0.573045 1.089599,-0.007 c 1.700486,-0.01214 3.104919,-0.341195 4.232657,-0.788845 0.21918,-0.08769 0.70266,-0.263573 0.86032,-0.421259 0.28634,-0.286381 0.2856,-0.747343 -7e-5,-1.032977 -0.23335,-0.233314 -0.58459,-0.276907 -0.86175,-0.12699 -1.371653,0.649182 -3.383211,1.163428 -6.098361,0.793118 -0.171818,-0.02191 -0.349491,-0.05037 -0.522017,-0.08006 l -0.132583,-0.02209 -0.06491,-0.09804 z m 1.356926,-8.215568 c 0.285674,0.285633 0.748017,0.284928 1.034358,-0.0015 0.188066,-0.188093 0.251989,-0.45358 0.193285,-0.693271 -0.135132,-1.173009 -0.07085,-2.65376 0.469223,-4.383276 l -3.054731,2.21e-4 0.0015,1.879512 c 0.212097,-0.316779 0.446149,-0.623669 0.705621,-0.912876 l 0.738798,-0.818947 -0.19464,1.084088 c -0.189418,1.062023 -0.216783,2.022669 -0.153088,2.868313 0.02477,0.334439 0.01221,0.730262 0.259695,0.977717 z"
       style="display:none;stroke-width:0.999939" /><path
       id="lpe_path-effect1488"
       style="stroke-width:0.999939"
       class="powerclip"
       d="m 89.167,54.102001 h 30.365 V 84.465002 H 89.167 Z m 4.994133,18.287741 c 0.716305,0.69075 1.529145,1.267598 2.429269,1.710863 0.939013,0.462353 1.93554,0.76717 2.965034,0.907096 4.118684,0.557582 8.118484,-1.573081 9.953764,-5.303676 1.13891,-2.311471 1.30753,-4.931034 0.47867,-7.370345 -0.4123,-1.21117 -1.05039,-2.291672 -1.8756,-3.234129 l -2.32972,0.0015 c 0.26728,0.203616 0.53234,0.410745 0.77064,0.649009 0.87116,0.871041 1.51876,1.91317 1.92116,3.094645 0.31329,0.924109 0.45659,1.884341 0.42555,2.855849 l -0.0455,1.371322 -0.55524,-1.253897 c -0.64424,-1.448727 -1.45682,-2.666267 -2.41284,-3.62215 -0.49851,-0.498444 -1.00358,-0.894322 -1.49431,-1.209637 -0.38254,-0.246738 -0.78947,-0.478247 -1.19317,-0.07448 -0.28634,0.286381 -0.28557,0.747371 -0.001,1.031591 0.0509,0.05091 0.10357,0.08752 0.16296,0.124283 0.44476,0.262289 0.91777,0.607304 1.38659,1.060498 0.0368,0.03535 0.071,0.071 0.10496,0.104949 1.37604,1.375842 2.40046,3.365044 3.04549,5.909013 l 0.0318,0.122899 -0.0636,0.107686 c -0.47508,0.849924 -1.09145,1.597035 -1.83241,2.222132 l -0.47638,0.401924 -0.0401,-0.62282 c -0.0984,-1.55624 -0.5134,-4.418474 -2.19067,-6.095511 -0.47518,-0.475113 -1.02831,-0.830117 -1.64206,-1.056334 l -0.15053,-0.0566 -0.0442,-0.160196 c -0.3996,-1.530765 -0.39544,-3.317093 0.0273,-4.908016 l -1.51493,-0.0013 c -0.327984,1.371726 -0.465504,3.174293 0.0791,5.26292 l 0.0497,0.193331 -0.15326,0.125702 c -0.422799,0.353562 -1.165342,0.846697 -2.290962,1.19748 -0.973605,0.304813 -2.339169,0.418117 -3.525625,0.38002 l 1.03e-4,1.469364 c 3.697247,0.171555 5.867384,-1.177136 6.853674,-2.026389 l 0.15188,-0.129841 0.18368,0.08423 c 0.34647,0.155529 0.66519,0.380641 0.95016,0.665568 0.93056,0.93043 1.1997,1.941876 1.54556,3.431634 0.20159,1.089571 0.24317,2.150373 0.24464,2.848952 l 1e-5,0.209911 -0.19472,0.08148 c -1.30733,0.533925 -2.73345,0.714428 -4.124963,0.526447 -0.858383,-0.115898 -1.693446,-0.371312 -2.474778,-0.756606 -0.232632,-0.113821 -0.470821,-0.247824 -0.711233,-0.39629 l -0.926682,-0.573045 1.089599,-0.007 c 1.700486,-0.01214 3.104919,-0.341195 4.232657,-0.788845 0.21918,-0.08769 0.70266,-0.263573 0.86032,-0.421259 0.28634,-0.286381 0.2856,-0.747343 -7e-5,-1.032977 -0.23335,-0.233314 -0.58459,-0.276907 -0.86175,-0.12699 -1.371653,0.649182 -3.383211,1.163428 -6.098361,0.793118 -0.171818,-0.02191 -0.349491,-0.05037 -0.522017,-0.08006 l -0.132583,-0.02209 -0.06491,-0.09804 z m 1.356926,-8.215568 c 0.285674,0.285633 0.748017,0.284928 1.034358,-0.0015 0.188066,-0.188093 0.251989,-0.45358 0.193285,-0.693271 -0.135132,-1.173009 -0.07085,-2.65376 0.469223,-4.383276 l -3.054731,2.21e-4 0.0015,1.879512 c 0.212097,-0.316779 0.446149,-0.623669 0.705621,-0.912876 l 0.738798,-0.818947 -0.19464,1.084088 c -0.189418,1.062023 -0.216783,2.022669 -0.153088,2.868313 0.02477,0.334439 0.01221,0.730262 0.259695,0.977717 z" /></clipPath></defs><sodipodi:namedview
   id="namedview33"
   pagecolor="#505050"
   bordercolor="#eeeeee"
   borderopacity="1"
   inkscape:pageshadow="0"
   inkscape:pageopacity="0"
   inkscape:pagecheckerboard="0"
   showgrid="false"
   fit-margin-top="0"
   fit-margin-left="0"
   fit-margin-right="0"
   fit-margin-bottom="0"
   inkscape:zoom="3.3287037"
   inkscape:cx="50.319889"
   inkscape:cy="59.632823"
   inkscape:window-width="1920"
   inkscape:window-height="991"
   inkscape:window-x="-9"
   inkscape:window-y="-9"
   inkscape:window-maximized="1"
   inkscape:current-layer="Layer_1" />
<path
   fill-rule="evenodd"
   clip-rule="evenodd"
   fill="#8eb820"
   d="M 101.864,92.083 127.6,66.344 c 14.031,14.034 28.053,27.951 42.264,41.787 L 148,97.416 127.6,117.812 Z"
   id="path2"
   clip-path="url(#clipPath868)"
   inkscape:path-effect="#path-effect872"
   inkscape:original-d="M 101.864,92.083 127.6,66.344 c 14.031,14.034 28.053,27.951 42.264,41.787 L 148,97.416 127.6,117.812 Z"
   transform="translate(-36.887,-54.883336)"
   style="fill:#ffffff;fill-opacity:1" />
<rect
   fill="none"
   width="216"
   height="216"
   id="rect4"
   x="-36.887001"
   y="-54.883335" />
<path
   x="94.167"
   y="59.102001"
   transform="matrix(-0.7072,0.7071,-0.7071,-0.7072,190.2421,-10.387836)"
   fill-rule="evenodd"
   clip-rule="evenodd"
   fill="#7d95cc"
   width="20.365"
   height="20.363001"
   id="rect6"
   sodipodi:type="rect"
   clip-path="url(#clipPath1484)"
   inkscape:path-effect="#path-effect1488"
   d="m 94.167,59.102001 h 20.365 V 79.465002 H 94.167 Z"
   style="fill:#ffffff;fill-opacity:1" />

<path
   fill-rule="evenodd"
   clip-rule="evenodd"
   fill="#e58d00"
   d="m 80.872,71.081 21.003,21.005 -21.003,20.997 C 75.704,107.918 70.535,102.75 65.367,97.582 l -22.41,10.981 z"
   id="path10"
   clip-path="url(#clipPath860)"
   inkscape:original-d="m 80.872,71.081 21.003,21.005 -21.003,20.997 C 75.704,107.918 70.535,102.75 65.367,97.582 l -22.41,10.981 z"
   inkscape:path-effect="#path-effect864"
   transform="translate(-36.887,-54.883336)"
   style="fill:#ffffff;fill-opacity:1" />

<g
   id="g907"
   clip-path="none"
   transform="translate(-36.887,-54.883336)"><g
     id="g18">
	
	
</g></g>
<g
   id="g30"
   transform="translate(-36.887,-54.883336)"
   style="fill:#ffffff;fill-opacity:1">
	<polygon
   fill="#00953f"
   points="51.55,145.577 48.552,124.241 51.426,123.335 50.619,117.599 36.887,119.528 37.692,125.267 40.704,125.345 43.778,147.218 40.904,148.122 41.711,153.86 66.381,150.394 64.892,139.8 58.909,140.64 58.711,144.569 "
   id="polygon20"
   style="fill:#ffffff;fill-opacity:1" />
	<polygon
   fill="#00953f"
   points="109.02,121.37 114.367,121.37 114.367,111.218 86.633,111.218 86.633,121.37 91.982,121.37 92.576,118.052 96.539,118.052 96.539,139.597 93.567,140.091 93.567,145.886 107.435,145.886 107.435,140.091 104.463,139.597 104.463,118.052 108.424,118.052 "
   id="polygon22"
   style="fill:#ffffff;fill-opacity:1" />
	<path
   fill="#00953f"
   d="m 81.801,139.034 h -3.714 c -1.156,0 -1.981,-0.246 -2.477,-0.742 -0.496,-0.498 -0.743,-1.322 -0.743,-2.479 v -0.643 c 0,-1.154 0.247,-1.98 0.743,-2.477 0.495,-0.496 1.32,-0.744 2.477,-0.744 h 5.15 l 0.742,3.566 h 6.044 v -10.4 H 76.65 c -3.137,0 -5.539,0.834 -7.206,2.502 -1.668,1.666 -2.502,4.068 -2.502,7.205 v 0.693 c 0,6.902 3.236,10.352 9.708,10.352 h 3.665 c 1.155,0 1.98,0.248 2.477,0.744 0.495,0.494 0.743,1.32 0.743,2.477 v 0.643 c 0,1.156 -0.248,1.98 -0.743,2.477 -0.496,0.494 -1.321,0.744 -2.477,0.744 h -6.142 l -0.743,-3.566 h -5.993 v 10.4 H 79.72 c 3.929,0 6.867,-0.703 8.815,-2.105 1.949,-1.402 2.922,-3.92 2.922,-7.551 v -0.695 c 0.001,-6.932 -3.217,-10.401 -9.656,-10.401 z"
   id="path24"
   style="fill:#ffffff;fill-opacity:1" />
	<polygon
   fill="#00953f"
   points="149.424,126.53 135.738,125.575 128.627,145.63 128.133,145.597 123.734,124.735 110.197,123.786 109.791,129.569 112.721,130.269 111.18,152.306 108.182,152.591 107.778,158.372 118.646,159.134 119.977,140.11 120.471,140.146 124.527,159.544 130.258,159.942 136.973,141.3 137.467,141.333 136.137,160.356 147.006,161.116 147.41,155.335 144.48,154.634 146.021,132.599 149.021,132.312 "
   id="polygon26"
   style="fill:#ffffff;fill-opacity:1" />
	<polygon
   fill="#00953f"
   points="177.256,130.263 179.113,119.728 153.994,115.298 152.988,121.005 155.83,122.009 151.992,143.761 148.98,143.733 147.975,149.442 173.582,153.956 175.439,143.419 169.488,142.37 168.086,146.048 159.893,144.601 161.164,137.382 168.773,138.726 169.875,132.481 162.266,131.14 163.537,123.921 171.244,125.28 171.307,129.214 "
   id="polygon28"
   style="fill:#ffffff;fill-opacity:1" />
</g>
</svg>
